<?xml version="1.0" standalone="no"?>
<!DOCTYPE svg PUBLIC "-//W3C//DTD SVG 20010904//EN"
 "http://www.w3.org/TR/2001/REC-SVG-20010904/DTD/svg10.dtd">
<svg version="1.0" xmlns="http://www.w3.org/2000/svg"
 width="16.000000pt" height="16.000000pt" viewBox="0 0 16.000000 16.000000"
 preserveAspectRatio="xMidYMid meet">
<metadata>
Created by potrace 1.11, written by Peter Selinger 2001-2013
</metadata>
<g transform="translate(0.000000,16.000000) scale(0.002286,-0.002286)"
fill="#000000" stroke="none">
<path d="M828 6984 c-349 -63 -656 -346 -771 -711 -59 -186 -56 -23 -56 -2773
0 -2579 0 -2542 33 -2699 12 -54 51 -160 83 -225 144 -295 405 -501 708 -560
71 -14 370 -15 2705 -13 l2625 2 80 23 c44 13 104 34 133 47 29 14 55 25 58
25 20 0 181 118 240 176 120 116 196 234 257 395 32 84 43 124 65 226 3 15 7
1173 8 2573 3 2775 6 2625 -53 2805 -56 171 -143 314 -265 437 -152 151 -318
238 -528 277 -36 7 -941 10 -2650 10 -2168 -1 -2608 -3 -2672 -15z m2717 -752
c22 -20 76 -68 120 -107 44 -38 85 -74 91 -80 32 -29 152 -136 172 -153 53
-46 404 -365 448 -407 11 -11 83 -78 160 -150 256 -238 409 -397 435 -450 20
-41 24 -65 24 -135 0 -106 -26 -167 -109 -257 -128 -138 -285 -195 -439 -159
-82 19 -179 82 -327 210 -88 76 -136 114 -145 115 -7 1 -10 -597 -11 -1771 -1
-1311 -5 -1786 -13 -1823 -31 -132 -161 -264 -307 -314 -72 -24 -204 -26 -278
-4 -140 42 -286 189 -316 318 -9 37 -12 528 -12 1833 -1 1008 -5 1782 -10
1782 -4 0 -36 -28 -71 -62 -154 -153 -293 -257 -371 -280 -60 -17 -183 -18
-246 -2 -107 28 -251 148 -308 259 -23 44 -26 62 -27 150 0 142 13 162 245
385 102 98 201 193 221 212 20 18 90 83 155 144 132 123 152 142 215 198 39
34 114 102 274 247 46 41 261 231 329 289 16 14 34 30 40 37 16 17 17 17 61
-25z"/>
</g>
</svg>
