<svg style="position: absolute; width: 0; height: 0; overflow: hidden;" version="1.1" xmlns="http://www.w3.org/2000/svg" xmlns:xlink="http://www.w3.org/1999/xlink">
<defs>
<symbol id="icon-instagram" viewBox="0 0 16 16">
<title>instagram</title>
<path class="path1" d="M8 1.441c2.137 0 2.391 0.009 3.231 0.047 0.781 0.034 1.203 0.166 1.484 0.275 0.372 0.144 0.641 0.319 0.919 0.597 0.281 0.281 0.453 0.547 0.6 0.919 0.109 0.281 0.241 0.706 0.275 1.484 0.037 0.844 0.047 1.097 0.047 3.231s-0.009 2.391-0.047 3.231c-0.034 0.781-0.166 1.203-0.275 1.484-0.144 0.372-0.319 0.641-0.597 0.919-0.281 0.281-0.547 0.453-0.919 0.6-0.281 0.109-0.706 0.241-1.484 0.275-0.844 0.037-1.097 0.047-3.231 0.047s-2.391-0.009-3.231-0.047c-0.781-0.034-1.203-0.166-1.484-0.275-0.372-0.144-0.641-0.319-0.919-0.597-0.281-0.281-0.453-0.547-0.6-0.919-0.109-0.281-0.241-0.706-0.275-1.484-0.038-0.844-0.047-1.097-0.047-3.231s0.009-2.391 0.047-3.231c0.034-0.781 0.166-1.203 0.275-1.484 0.144-0.372 0.319-0.641 0.597-0.919 0.281-0.281 0.547-0.453 0.919-0.6 0.281-0.109 0.706-0.241 1.484-0.275 0.841-0.038 1.094-0.047 3.231-0.047zM8 0c-2.172 0-2.444 0.009-3.297 0.047-0.85 0.038-1.434 0.175-1.941 0.372-0.528 0.206-0.975 0.478-1.419 0.925-0.447 0.444-0.719 0.891-0.925 1.416-0.197 0.509-0.334 1.091-0.372 1.941-0.037 0.856-0.047 1.128-0.047 3.3s0.009 2.444 0.047 3.297c0.038 0.85 0.175 1.434 0.372 1.941 0.206 0.528 0.478 0.975 0.925 1.419 0.444 0.444 0.891 0.719 1.416 0.922 0.509 0.197 1.091 0.334 1.941 0.372 0.853 0.037 1.125 0.047 3.297 0.047s2.444-0.009 3.297-0.047c0.85-0.037 1.434-0.175 1.941-0.372 0.525-0.203 0.972-0.478 1.416-0.922s0.719-0.891 0.922-1.416c0.197-0.509 0.334-1.091 0.372-1.941 0.037-0.853 0.047-1.125 0.047-3.297s-0.009-2.444-0.047-3.297c-0.037-0.85-0.175-1.434-0.372-1.941-0.197-0.531-0.469-0.978-0.916-1.422-0.444-0.444-0.891-0.719-1.416-0.922-0.509-0.197-1.091-0.334-1.941-0.372-0.856-0.041-1.128-0.050-3.3-0.050v0z"></path>
<path class="path2" d="M8 3.891c-2.269 0-4.109 1.841-4.109 4.109s1.841 4.109 4.109 4.109 4.109-1.841 4.109-4.109c0-2.269-1.841-4.109-4.109-4.109zM8 10.666c-1.472 0-2.666-1.194-2.666-2.666s1.194-2.666 2.666-2.666c1.472 0 2.666 1.194 2.666 2.666s-1.194 2.666-2.666 2.666z"></path>
<path class="path3" d="M13.231 3.728c0 0.53-0.43 0.959-0.959 0.959s-0.959-0.43-0.959-0.959c0-0.53 0.43-0.959 0.959-0.959s0.959 0.43 0.959 0.959z"></path>
</symbol>
<symbol id="icon-logo" viewBox="0 0 16 16">
<title>logo</title>
<path class="path1" d="M13.541 4.353c0 0.074-0.003 0.128-0.009 0.165-0.008 0.047-0.025 0.090-0.054 0.13-0.036 0.056-0.085 0.1-0.145 0.132-0.061 0.033-0.126 0.049-0.194 0.049-0.072 0-0.135-0.018-0.188-0.052-0.047-0.031-0.097-0.083-0.159-0.166l-0.789-1.021v0.806c0 0.121-0.034 0.222-0.101 0.299-0.070 0.080-0.167 0.123-0.282 0.123s-0.213-0.043-0.284-0.124c-0.068-0.078-0.103-0.178-0.103-0.297v-1.84c0-0.062 0.004-0.109 0.011-0.145 0.009-0.042 0.028-0.082 0.055-0.121 0.073-0.109 0.179-0.167 0.306-0.167 0.070 0 0.132 0.016 0.186 0.047 0.050 0.029 0.102 0.080 0.16 0.155l0.82 1.041v-0.827c0.003-0.121 0.038-0.22 0.105-0.295 0.070-0.079 0.165-0.12 0.278-0.12s0.212 0.042 0.283 0.122c0.069 0.077 0.103 0.177 0.103 0.296v1.81zM13.442 8.523c-0.065 0.225-0.161 0.439-0.285 0.636-0.123 0.196-0.272 0.375-0.442 0.533-0.172 0.16-0.368 0.294-0.582 0.398-0.188 0.091-0.378 0.155-0.567 0.19-0.184 0.034-0.417 0.051-0.713 0.051h-0.408v0.677c-0.008 0.306-0.097 0.56-0.266 0.754-0.177 0.204-0.425 0.313-0.718 0.313-0.294 0-0.543-0.111-0.72-0.32-0.169-0.199-0.255-0.453-0.255-0.754v-4.628c0-0.7 0.395-1.101 1.085-1.101h1.207c0.135 0 0.285 0.012 0.445 0.035 0.154 0.023 0.308 0.050 0.459 0.082l0.006 0.001c0.624 0.147 1.115 0.506 1.461 1.070 0.124 0.207 0.22 0.429 0.288 0.661 0.069 0.235 0.103 0.473 0.103 0.709 0.001 0.234-0.032 0.468-0.098 0.693v0zM8.127 4.818c-0.112 0-0.209-0.043-0.28-0.124-0.068-0.079-0.103-0.179-0.103-0.298v-1.523h-0.344c-0.112-0.003-0.205-0.036-0.275-0.098-0.073-0.065-0.112-0.157-0.112-0.266 0-0.105 0.039-0.197 0.113-0.264 0.072-0.066 0.165-0.099 0.277-0.099h1.455c0.109 0.003 0.201 0.036 0.272 0.097 0.076 0.065 0.115 0.158 0.115 0.266s-0.040 0.201-0.114 0.267c-0.073 0.065-0.166 0.097-0.276 0.097h-0.342v1.526c-0.003 0.121-0.038 0.22-0.104 0.297-0.070 0.080-0.167 0.122-0.282 0.122v0zM7.865 9.285c0 0.393-0.070 0.765-0.209 1.106s-0.333 0.642-0.578 0.895c-0.245 0.254-0.539 0.455-0.872 0.599s-0.699 0.217-1.085 0.217-0.752-0.073-1.089-0.217c-0.335-0.143-0.632-0.342-0.883-0.591-0.252-0.25-0.452-0.548-0.594-0.886s-0.215-0.704-0.215-1.086v-3.042c0-0.31 0.087-0.565 0.258-0.759 0.177-0.2 0.425-0.306 0.716-0.306s0.54 0.107 0.721 0.31c0.175 0.198 0.263 0.452 0.263 0.755v3.042c0 0.124 0.021 0.239 0.062 0.341 0.043 0.104 0.099 0.191 0.17 0.265 0.072 0.074 0.155 0.132 0.255 0.176 0.098 0.044 0.202 0.065 0.318 0.065 0.134 0 0.256-0.031 0.374-0.093 0.118-0.063 0.212-0.146 0.286-0.252 0.050-0.074 0.087-0.149 0.11-0.224 0.016-0.052 0.034-0.148 0.034-0.314v-3.013c0.008-0.307 0.098-0.56 0.268-0.752 0.177-0.2 0.422-0.306 0.707-0.306 0.291 0 0.54 0.107 0.72 0.31 0.174 0.198 0.263 0.452 0.263 0.755v3.005zM2.34 2.54c0.003-0.121 0.038-0.22 0.105-0.295 0.070-0.079 0.167-0.12 0.281-0.12s0.212 0.042 0.282 0.123c0.067 0.077 0.101 0.176 0.101 0.295v1.524h0.616c0.11 0.003 0.201 0.036 0.271 0.098 0.074 0.065 0.112 0.157 0.112 0.265s-0.039 0.2-0.111 0.266c-0.071 0.064-0.164 0.097-0.275 0.097h-0.955c-0.271-0.006-0.427-0.164-0.427-0.433v-1.82zM4.208 2.54c0.003-0.121 0.038-0.22 0.105-0.295 0.070-0.079 0.167-0.12 0.281-0.12 0.115 0 0.212 0.042 0.282 0.123 0.067 0.077 0.101 0.176 0.101 0.295v1.854c0 0.121-0.034 0.222-0.101 0.299-0.070 0.080-0.167 0.123-0.282 0.123s-0.213-0.044-0.284-0.125c-0.068-0.079-0.102-0.179-0.102-0.298v-1.856zM5.166 3.986c0.019-0.043 0.044-0.082 0.076-0.116s0.069-0.061 0.111-0.081c0.045-0.021 0.093-0.033 0.143-0.033 0.066 0 0.129 0.014 0.187 0.041 0.053 0.025 0.112 0.067 0.181 0.128l0.002 0.002c0.062 0.058 0.118 0.099 0.168 0.124 0.046 0.022 0.092 0.033 0.138 0.033 0.056 0 0.098-0.015 0.132-0.046 0.032-0.030 0.047-0.063 0.047-0.108 0-0.033-0.010-0.058-0.033-0.080-0.023-0.020-0.070-0.052-0.172-0.082l-0.239-0.069c-0.196-0.057-0.341-0.12-0.444-0.193-0.088-0.060-0.156-0.141-0.203-0.242-0.045-0.098-0.068-0.21-0.068-0.332 0-0.12 0.024-0.233 0.072-0.334 0.047-0.101 0.114-0.189 0.199-0.262 0.084-0.072 0.185-0.128 0.302-0.168 0.115-0.039 0.241-0.058 0.375-0.058 0.112 0 0.221 0.013 0.322 0.040 0.103 0.027 0.194 0.065 0.273 0.112 0.083 0.050 0.149 0.111 0.197 0.18 0.053 0.075 0.079 0.158 0.079 0.246 0 0.098-0.033 0.184-0.1 0.256s-0.153 0.111-0.25 0.111c-0.069 0-0.135-0.022-0.196-0.065-0.011-0.007-0.025-0.017-0.050-0.038-0.020-0.017-0.047-0.038-0.081-0.065-0.078-0.063-0.15-0.094-0.216-0.094-0.050 0-0.090 0.013-0.124 0.041-0.035 0.029-0.040 0.053-0.040 0.073 0 0.034 0.011 0.048 0.023 0.057 0.014 0.011 0.058 0.039 0.188 0.070 0.11 0.028 0.205 0.055 0.284 0.081 0.081 0.027 0.154 0.056 0.219 0.087 0.145 0.070 0.259 0.168 0.336 0.292s0.116 0.268 0.116 0.429c0 0.134-0.024 0.257-0.072 0.368-0.049 0.111-0.119 0.208-0.209 0.288-0.088 0.080-0.194 0.142-0.314 0.185-0.118 0.044-0.25 0.065-0.393 0.065-0.128 0-0.252-0.017-0.369-0.052s-0.222-0.082-0.311-0.143c-0.092-0.062-0.167-0.136-0.223-0.218-0.060-0.090-0.091-0.185-0.091-0.285 0-0.051 0.010-0.1 0.028-0.145v0zM9.293 2.576c0.006-0.273 0.163-0.43 0.43-0.43h1.009c0.11 0.003 0.201 0.036 0.271 0.098 0.074 0.065 0.112 0.157 0.112 0.265s-0.039 0.2-0.111 0.266c-0.071 0.064-0.163 0.097-0.275 0.097h-0.667v0.235h0.511c0.102 0.003 0.187 0.033 0.252 0.089 0.071 0.061 0.109 0.147 0.109 0.249 0 0.101-0.037 0.187-0.106 0.25-0.067 0.061-0.154 0.091-0.258 0.091h-0.508v0.279h0.688c0.109 0.003 0.201 0.036 0.272 0.097 0.075 0.065 0.115 0.157 0.115 0.266 0 0.108-0.039 0.201-0.114 0.267-0.072 0.064-0.165 0.096-0.276 0.096h-1.026c-0.272-0.004-0.428-0.162-0.428-0.431v-1.784zM13.456 0h-10.912c-1.185 0-2.155 0.976-2.155 2.168v9.745c0 1.192 0.969 2.168 2.154 2.168h1.684l-1.155 1.919 2.574-1.919h7.81c1.185 0 2.154-0.976 2.154-2.168v-9.745c0.001-1.192-0.969-2.168-2.154-2.168v0z"></path>
<path class="path2" d="M11.522 6.972c0 0.036-0.010 0.069-0.030 0.097-0.021 0.027-0.046 0.051-0.076 0.070s-0.065 0.028-0.103 0.028c-0.040 0-0.081-0.018-0.125-0.055l-0.12-0.1v1.527c0 0.038-0.007 0.068-0.020 0.090s-0.028 0.039-0.040 0.051c-0.014 0.012-0.032 0.024-0.056 0.038-0.024 0.012-0.052 0.018-0.086 0.018s-0.062-0.006-0.086-0.018c-0.023-0.013-0.042-0.026-0.056-0.038-0.012-0.012-0.026-0.029-0.040-0.051s-0.020-0.052-0.020-0.090v-1.536l-0.064 0.062c-0.027 0.025-0.050 0.045-0.070 0.060s-0.038 0.026-0.056 0.033c-0.017 0.006-0.038 0.009-0.063 0.009s-0.046-0.003-0.063-0.009c-0.017-0.006-0.034-0.016-0.050-0.028-0.018-0.013-0.034-0.028-0.048-0.044s-0.023-0.031-0.030-0.047-0.010-0.036-0.010-0.061v-0.012c0-0.033 0.019-0.067 0.056-0.101l0.108-0.104c0.109-0.103 0.218-0.204 0.328-0.301l0.164-0.145 0.164 0.145c0.11 0.097 0.22 0.198 0.328 0.301l0.102 0.097c0.042 0.040 0.062 0.078 0.062 0.114z"></path>
</symbol>
<symbol id="icon-arrow-up8" viewBox="0 0 16 16">
<title>arrow-up8</title>
<path class="path1" d="M13.707 6.293l-5-5c-0.39-0.391-1.024-0.391-1.414 0l-5 5c-0.391 0.391-0.391 1.024 0 1.414s1.024 0.391 1.414 0l3.293-3.293v9.586c0 0.552 0.448 1 1 1s1-0.448 1-1v-9.586l3.293 3.293c0.195 0.195 0.451 0.293 0.707 0.293s0.512-0.098 0.707-0.293c0.391-0.391 0.391-1.024 0-1.414z"></path>
</symbol>
<symbol id="icon-facebook" viewBox="0 0 16 16">
<title>facebook</title>
<path class="path1" d="M9.5 3h2.5v-3h-2.5c-1.93 0-3.5 1.57-3.5 3.5v1.5h-2v3h2v8h3v-8h2.5l0.5-3h-3v-1.5c0-0.271 0.229-0.5 0.5-0.5z"></path>
</symbol>
<symbol id="icon-spotify" viewBox="0 0 16 16">
<title>spotify</title>
<path class="path1" d="M8 0c-4.4 0-8 3.6-8 8s3.6 8 8 8 8-3.6 8-8-3.559-8-8-8zM11.681 11.559c-0.159 0.241-0.441 0.319-0.681 0.159-1.881-1.159-4.241-1.4-7.041-0.759-0.281 0.081-0.519-0.119-0.6-0.359-0.081-0.281 0.119-0.519 0.359-0.6 3.041-0.681 5.681-0.4 7.759 0.881 0.281 0.119 0.322 0.438 0.203 0.678zM12.641 9.359c-0.2 0.281-0.559 0.4-0.841 0.2-2.159-1.319-5.441-1.719-7.959-0.919-0.319 0.081-0.681-0.081-0.759-0.4-0.081-0.319 0.081-0.681 0.4-0.759 2.919-0.881 6.519-0.441 9 1.081 0.238 0.119 0.359 0.519 0.159 0.797zM12.719 7.119c-2.559-1.519-6.841-1.681-9.281-0.919-0.4 0.119-0.8-0.119-0.919-0.481-0.119-0.4 0.119-0.8 0.481-0.919 2.841-0.841 7.519-0.681 10.481 1.081 0.359 0.2 0.481 0.681 0.281 1.041-0.203 0.278-0.681 0.397-1.044 0.197z"></path>
</symbol>
<symbol id="icon-twitter" viewBox="0 0 16 16">
<title>twitter</title>
<path class="path1" d="M16 3.538c-0.588 0.263-1.222 0.438-1.884 0.516 0.678-0.406 1.197-1.050 1.444-1.816-0.634 0.375-1.338 0.65-2.084 0.797-0.6-0.638-1.453-1.034-2.397-1.034-1.813 0-3.281 1.469-3.281 3.281 0 0.256 0.028 0.506 0.084 0.747-2.728-0.138-5.147-1.444-6.766-3.431-0.281 0.484-0.444 1.050-0.444 1.65 0 1.138 0.578 2.144 1.459 2.731-0.538-0.016-1.044-0.166-1.488-0.409 0 0.013 0 0.028 0 0.041 0 1.591 1.131 2.919 2.634 3.219-0.275 0.075-0.566 0.116-0.866 0.116-0.212 0-0.416-0.022-0.619-0.059 0.419 1.303 1.631 2.253 3.066 2.281-1.125 0.881-2.538 1.406-4.078 1.406-0.266 0-0.525-0.016-0.784-0.047 1.456 0.934 3.181 1.475 5.034 1.475 6.037 0 9.341-5.003 9.341-9.341 0-0.144-0.003-0.284-0.009-0.425 0.641-0.459 1.197-1.038 1.637-1.697z"></path>
</symbol>
<symbol id="icon-youtube" viewBox="0 0 16 16">
<title>youtube</title>
<path class="path1" d="M15.841 4.8c0 0-0.156-1.103-0.637-1.587-0.609-0.637-1.291-0.641-1.603-0.678-2.237-0.163-5.597-0.163-5.597-0.163h-0.006c0 0-3.359 0-5.597 0.163-0.313 0.038-0.994 0.041-1.603 0.678-0.481 0.484-0.634 1.587-0.634 1.587s-0.159 1.294-0.159 2.591v1.213c0 1.294 0.159 2.591 0.159 2.591s0.156 1.103 0.634 1.588c0.609 0.637 1.409 0.616 1.766 0.684 1.281 0.122 5.441 0.159 5.441 0.159s3.363-0.006 5.6-0.166c0.313-0.037 0.994-0.041 1.603-0.678 0.481-0.484 0.637-1.588 0.637-1.588s0.159-1.294 0.159-2.591v-1.213c-0.003-1.294-0.162-2.591-0.162-2.591zM6.347 10.075v-4.497l4.322 2.256-4.322 2.241z"></path>
</symbol>
<symbol id="icon-appleinc" viewBox="0 0 16 16">
<title>appleinc</title>
<path class="path1" d="M12.367 8.501c-0.020-2.026 1.652-2.998 1.727-3.046-0.94-1.375-2.404-1.564-2.926-1.585-1.246-0.126-2.431 0.734-3.064 0.734-0.631 0-1.607-0.715-2.64-0.696-1.358 0.020-2.61 0.79-3.31 2.006-1.411 2.448-0.361 6.076 1.014 8.061 0.672 0.972 1.473 2.064 2.525 2.025 1.013-0.040 1.396-0.656 2.621-0.656s1.569 0.656 2.641 0.635c1.090-0.020 1.781-0.991 2.448-1.966 0.772-1.128 1.089-2.219 1.108-2.275-0.024-0.011-2.126-0.816-2.147-3.236zM10.353 2.555c0.558-0.677 0.935-1.617 0.832-2.555-0.804 0.033-1.779 0.536-2.356 1.212-0.518 0.6-0.971 1.557-0.85 2.476 0.898 0.070 1.815-0.456 2.373-1.132z"></path>
</symbol>
<symbol id="icon-soundcloud" viewBox="0 0 16 16">
<title>soundcloud</title>
<path class="path1" d="M13.937 8.034c-0.283 0-0.552 0.055-0.798 0.154-0.164-1.787-1.723-3.188-3.625-3.188-0.465 0-0.917 0.088-1.317 0.237-0.156 0.058-0.197 0.117-0.197 0.233v6.292c0 0.121 0.098 0.222 0.221 0.234 0.005 0.001 5.68 0.003 5.717 0.003 1.139 0 2.062-0.888 2.062-1.983s-0.924-1.983-2.063-1.983zM6.25 12h0.5l0.25-3.503-0.25-3.497h-0.5l-0.25 3.497zM4.75 12h-0.5l-0.25-2.543 0.25-2.457h0.5l0.25 2.5zM2.25 12h0.5l0.25-2-0.25-2h-0.5l-0.25 2zM0.25 11h0.5l0.25-1-0.25-1h-0.5l-0.25 1z"></path>
</symbol>
</defs>
</svg>
